<?xml version="1.0" encoding="utf-8"?>
<!-- Generator: Adobe Illustrator 14.0.0, SVG Export Plug-In . SVG Version: 6.00 Build 43363)  -->
<!DOCTYPE svg PUBLIC "-//W3C//DTD SVG 1.1//EN" "http://www.w3.org/Graphics/SVG/1.1/DTD/svg11.dtd">
<svg version="1.1" id="Ebene_2" xmlns="http://www.w3.org/2000/svg" xmlns:xlink="http://www.w3.org/1999/xlink" x="0px" y="0px"
	 width="99.21px" height="42.52px" viewBox="0 0 99.21 42.52" enable-background="new 0 0 99.21 42.52" xml:space="preserve">
<polyline fill="none" stroke="#000000" stroke-width="0.25" points="1.271,12.458 0.521,17.708 0,20.687 0.083,22.209 0.417,23.354 
	1.333,24.625 1.812,24.959 2.812,25.438 4.062,25.709 5.333,25.604 6.396,25.188 7.188,24.521 8.646,22.521 9.458,21.021 
	10.313,19.396 10.875,18.5 11.708,19.313 12.604,19.625 13.521,19.792 15.208,19.729 16.042,19.458 16.729,19 17.271,18.375 
	17.729,17.729 18.104,17.292 18.271,16.958 22.417,17 23,17.917 23.688,18.563 24.646,19.229 25.604,19.688 27.25,19.792 
	28.396,19.563 29.167,19.208 29.646,18.875 29.917,18.625 31.958,22.25 33.042,23.938 33.792,24.812 35.25,25.584 37,25.604 
	37.979,25.375 38.854,24.959 39.479,24.438 40.104,23.562 40.458,22.729 40.604,21.75 40.604,20.375 39.146,9.333 39.083,7.938 
	38.958,7.271 38.375,6.083 37.396,4.771 36.792,4.042 36.062,3.521 35.729,3.312 35.583,2.312 35.438,1.708 35.083,1.021 
	34.521,0.562 33.917,0.271 33.167,0.104 32.25,0 31.583,0 30.646,0.188 30.167,0.438 29.75,0.75 29.354,1.104 29.083,1.625 
	28.833,2.083 28.604,2.708 28.562,3.563 28.146,3.917 12.604,3.979 12.312,3.667 12.021,3.396 11.771,3.146 11.75,2.646 
	11.667,2.104 11.5,1.458 11.188,1 10.75,0.542 10.104,0.229 9.479,0.083 8.833,0.042 7.688,0.063 6.812,0.25 6.417,0.438 
	6.042,0.646 5.667,1.104 5.375,1.5 5.229,1.917 5.125,2.458 5.042,3.188 4.188,3.854 3.75,4.208 2.917,5.125 2.479,5.917 
	2.083,6.979 1.75,8 1.625,9.312 1.375,10.312 1.25,12.042 "/>
</svg>
