<?xml version="1.0" encoding="utf-8"?>
<!-- Generator: Adobe Illustrator 14.0.0, SVG Export Plug-In . SVG Version: 6.00 Build 43363)  -->
<!DOCTYPE svg PUBLIC "-//W3C//DTD SVG 1.1//EN" "http://www.w3.org/Graphics/SVG/1.1/DTD/svg11.dtd">
<svg version="1.1" id="Ebene_1" xmlns="http://www.w3.org/2000/svg" xmlns:xlink="http://www.w3.org/1999/xlink" x="0px" y="0px"
	 width="99.21px" height="42.52px" viewBox="0 0 99.21 42.52" enable-background="new 0 0 99.21 42.52" xml:space="preserve">
<polygon fill="none" stroke="#000000" stroke-width="0.25" points="9.612,11.353 8.965,11.853 8.789,12.234 8.642,12.881 
	8.642,13.557 8.612,14.38 8.701,15.497 8.877,16.084 9.229,16.555 9.729,16.761 10.229,16.584 10.64,16.261 11.11,15.938 
	11.493,15.997 11.551,16.144 11.581,16.819 11.64,18.906 11.617,19.583 11.64,22.991 12.168,23.079 12.139,23.814 12.168,27.634 
	12.756,27.487 12.756,23.049 13.256,22.961 13.315,18.994 13.347,17.051 13.197,15.849 12.686,14.441 12.374,13.586 11.997,13 
	11.574,12.409 10.905,11.911 10.407,11.634 10.111,11.47 "/>
</svg>
